<?xml version="1.0" encoding="utf-8"?>
<!-- Generator: Adobe Illustrator 15.0.1, SVG Export Plug-In . SVG Version: 6.00 Build 0)  -->
<!DOCTYPE svg PUBLIC "-//W3C//DTD SVG 1.1//EN" "http://www.w3.org/Graphics/SVG/1.1/DTD/svg11.dtd">
<svg version="1.1" id="Layer_1" xmlns="http://www.w3.org/2000/svg" xmlns:xlink="http://www.w3.org/1999/xlink" x="0px" y="0px"
	 width="800px" height="600px" viewBox="0 0 800 600" enable-background="new 0 0 800 600" xml:space="preserve">
<path fill="#D20000" d="M425.701,351.302c-6.299-9.114-126.535-190.034-131.714-197.802c-5.966-8.948-4.737-9.125-11.237,0.125
	c-5.667,8.064-127.186,189.836-132.775,198.191c-5.589,8.354-5.725,9.184,0.775,9.184c5.914,0,268.583,0,274.946,0
	C432.059,361,432,360.417,425.701,351.302z M304.119,325.005c-0.89,2.056-2.138,3.858-3.746,5.411
	c-1.61,1.556-3.471,2.722-5.577,3.497c-2.11,0.774-4.329,1.165-6.66,1.165c-2.331,0-4.553-0.391-6.66-1.165
	c-2.11-0.775-3.97-1.941-5.578-3.497c-1.61-1.553-2.858-3.355-3.746-5.411c-0.89-2.053-1.332-4.301-1.332-6.743
	c0-2.331,0.442-4.55,1.332-6.66c0.888-2.106,2.136-3.938,3.746-5.493c1.608-1.555,3.468-2.803,5.578-3.746
	c2.107-0.942,4.329-1.416,6.66-1.416c2.331,0,4.55,0.474,6.66,1.416c2.106,0.943,3.967,2.191,5.577,3.746
	c1.608,1.556,2.856,3.387,3.746,5.493c0.888,2.11,1.332,4.329,1.332,6.66C305.451,320.704,305.007,322.952,304.119,325.005z
	 M305.035,237.01c-0.39,2.443-0.861,4.94-1.415,7.492c-0.557,2.555-1.111,4.995-1.665,7.326c-0.557,2.331-0.999,4.352-1.332,6.017
	L292.132,293h-8.658l-9.324-40.316c-0.777-3.439-1.556-6.893-2.331-10.334c-0.777-3.439-1.165-6.942-1.165-10.496
	c0-6.66,1.581-11.434,4.745-14.322c3.163-2.885,7.409-4.331,12.737-4.331c5.438,0,9.712,1.498,12.82,4.495
	c3.106,2.997,4.662,7.383,4.662,13.153C305.618,232.515,305.423,234.569,305.035,237.01z"/>
</svg>
